<?xml version="1.0" standalone="no"?><!DOCTYPE svg PUBLIC "-//W3C//DTD SVG 20010904//EN"
  "http://www.w3.org/TR/2001/REC-SVG-20010904/DTD/svg10.dtd"><svg version="1.0" xmlns="http://www.w3.org/2000/svg" width="700.000000pt" height="700.000000pt" viewBox="0 0 700.000000 700.000000" preserveAspectRatio="xMidYMid meet"><metadata>Created by potrace 1.14, written by Peter Selinger 2001-2017</metadata><g transform="translate(0.000000,700.000000) scale(0.100000,-0.100000)" fill="#000000" stroke="none"><path d="M3278 6996 c-1 -2 -39 -6 -83 -10 -798 -62 -1601 -437 -2176 -1019
-293 -296 -552 -669 -704 -1017 -25 -58 -52 -118 -59 -135 -51 -115 -148 -423
-171 -546 -3 -13 -11 -58 -20 -99 -29 -147 -36 -200 -52 -370 -15 -164 -8
-592 12 -711 2 -13 6 -46 9 -74 21 -182 109 -547 165 -680 5 -11 25 -65 46
-120 63 -166 249 -531 312 -610 4 -6 34 -49 65 -95 52 -78 214 -285 263 -336
172 -182 263 -269 385 -371 81 -67 304 -233 314 -233 3 0 32 -18 65 -40 33
-22 63 -40 67 -40 4 0 15 -6 23 -14 27 -23 259 -139 390 -195 269 -116 598
-208 880 -247 25 -3 57 -8 71 -10 163 -25 682 -25 842 1 13 2 46 7 73 10 72
10 86 12 120 19 17 3 44 8 60 11 726 138 1438 544 1935 1104 36 41 70 79 76
85 65 68 263 353 352 508 46 79 172 331 172 342 0 3 11 29 24 58 57 127 151
421 182 573 17 81 54 301 59 350 4 33 9 71 11 85 9 46 11 524 4 605 -15 153
-21 210 -25 225 -2 8 -7 35 -10 60 -17 129 -80 384 -136 552 -152 453 -407
888 -725 1237 -85 93 -258 261 -334 322 -36 30 -67 56 -70 59 -36 41 -336 243
-486 328 -344 192 -800 351 -1144 397 -19 3 -46 7 -60 10 -13 2 -52 7 -86 11
-33 3 -74 8 -90 10 -32 5 -540 14 -546 10z m547 -521 c70 -9 197 -27 216 -30
9 -2 33 -6 54 -9 122 -20 385 -96 540 -158 488 -193 923 -518 1258 -938 267
-335 488 -796 572 -1195 3 -11 7 -31 10 -45 7 -32 11 -54 20 -110 4 -25 9 -54
12 -65 5 -26 10 -71 20 -170 10 -100 10 -466 1 -560 -56 -544 -241 -1040 -551
-1475 -34 -47 -64 -87 -67 -90 -3 -3 -21 -25 -40 -50 -54 -70 -114 -136 -237
-257 -287 -284 -643 -515 -1003 -653 -47 -17 -94 -36 -105 -41 -56 -24 -296
-90 -385 -105 -14 -3 -32 -7 -40 -9 -8 -3 -33 -7 -55 -10 -22 -3 -51 -8 -65
-11 -14 -2 -41 -6 -60 -8 -19 -3 -64 -8 -100 -12 -131 -16 -560 -10 -680 10
-14 3 -43 7 -65 10 -191 26 -455 97 -649 173 -770 301 -1395 923 -1698 1688
-68 171 -89 236 -132 413 -30 122 -40 174 -51 262 -2 14 -6 43 -9 65 -16 112
-20 177 -20 370 -1 177 7 329 19 395 3 14 12 77 20 130 25 164 86 385 159 572
153 395 374 734 674 1035 126 126 137 136 252 229 219 176 515 351 745 439 39
15 84 33 100 40 88 38 380 117 516 139 19 3 52 8 74 11 22 4 51 8 65 10 14 3
63 7 110 11 47 3 87 8 88 9 6 6 435 -3 487 -10z"/><path d="M3377 6385 c-1 -2 -42 -5 -92 -9 -49 -3 -99 -8 -111 -10 -12 -2 -45
-7 -74 -11 -29 -4 -62 -9 -74 -11 -548 -105 -992 -315 -1395 -660 -435 -372
-759 -880 -910 -1423 -31 -111 -47 -183 -70 -321 -41 -237 -46 -507 -17 -815
2 -16 6 -50 10 -75 4 -25 9 -56 12 -70 2 -14 8 -50 14 -80 6 -30 14 -66 16
-80 17 -86 87 -306 134 -425 89 -223 236 -487 360 -646 19 -25 46 -61 60 -79
58 -78 211 -242 321 -345 386 -358 906 -617 1434 -714 186 -34 315 -45 530
-45 353 0 611 42 950 156 130 44 153 54 325 135 443 211 858 570 1133 981 109
164 126 192 202 347 127 259 220 541 259 785 3 19 7 44 10 55 2 11 7 49 11 85
4 36 9 81 12 100 8 62 10 392 2 488 -11 135 -18 183 -40 307 -125 680 -487
1288 -1030 1731 -93 76 -215 163 -292 210 -27 16 -65 39 -85 52 -58 35 -289
147 -377 182 -156 63 -385 129 -525 154 -19 3 -46 8 -60 11 -47 9 -152 22
-245 31 -64 6 -392 13 -398 9z m313 -629 c491 -37 822 -249 953 -611 23 -64
31 -92 43 -150 2 -11 7 -31 10 -45 4 -14 9 -188 11 -387 l5 -363 -361 0 -361
0 -1 213 c-1 116 -2 226 -4 242 -18 199 -65 326 -156 417 -77 77 -181 111
-326 107 -100 -3 -144 -13 -220 -50 -168 -81 -236 -257 -229 -589 6 -249 43
-356 169 -484 106 -107 194 -158 452 -260 66 -27 129 -52 140 -57 11 -4 83
-35 160 -68 506 -215 691 -413 760 -813 28 -166 36 -391 22 -588 -35 -472
-213 -782 -545 -949 -69 -35 -245 -96 -302 -106 -19 -3 -60 -10 -90 -15 -97
-18 -191 -24 -345 -24 -236 1 -378 22 -570 85 -222 73 -390 222 -493 439 -68
143 -102 286 -128 535 -9 86 -14 535 -6 536 23 4 735 3 741 -1 4 -3 7 -102 7
-220 0 -320 14 -449 61 -592 29 -89 92 -189 143 -230 80 -63 256 -95 383 -68
121 25 234 105 289 206 29 53 62 170 75 262 15 109 9 410 -11 502 -32 152 -95
255 -211 346 -69 53 -308 173 -539 268 -575 239 -808 496 -891 981 -24 141
-24 510 0 665 22 142 64 297 102 380 57 123 173 252 289 321 110 65 302 129
434 145 30 3 58 8 62 10 4 3 62 7 130 11 68 3 124 6 125 7 4 3 145 -2 223 -8z"/></g></svg>