<svg width="137" height="137" viewBox="0 0 137 137" fill="none" xmlns="http://www.w3.org/2000/svg"><path fill-rule="evenodd" clip-rule="evenodd" d="M137 68.5C137 106.332 106.332 137 68.5 137C30.6685 137 0 106.332 0 68.5C0 30.6685 30.6685 0 68.5 0C106.332 0 137 30.6685 137 68.5ZM68.2 114.05C63.3 114.05 59.05 113.3 55.45 111.8C51.85 110.3 49.1 107.65 47.2 103.85C45.4 100.05 44.5 94.7 44.5 87.8V82.7H51.85H59.2V89C59.2 93.2 59.6 96.45 60.4 98.75C61.2 101.05 62.3 102.65 63.7 103.55C65.1 104.35 66.7 104.75 68.5 104.75C71.4 104.75 73.7 103.8 75.4 101.9C77.2 99.9 78.1 96.2 78.1 90.8C78.1 86.8 77.5 83.8 76.3 81.8C75.1 79.8 73.2 78.2 70.6 77C68.1 75.7 64.85 74.25 60.85 72.65C57.55 71.15 54.7 69.4 52.3 67.4C49.9 65.4 48.1 62.85 46.9 59.75C45.7 56.65 45.1 52.8 45.1 48.2C45.1 42.6 45.8 38.05 47.2 34.55C48.7 30.95 51.2 28.35 54.7 26.75C58.2 25.05 62.9 24.2 68.8 24.2C76.4 24.2 82.2 25.95 86.2 29.45C90.2 32.85 92.2 37.85 92.2 44.45V54.8H85.15H78.1V48.65C78.1 44.05 77.35 40.75 75.85 38.75C74.45 36.65 72.15 35.6 68.95 35.6C65.65 35.6 63.25 36.6 61.75 38.6C60.35 40.5 59.65 43.55 59.65 47.75C59.65 51.35 60.35 54.15 61.75 56.15C63.15 58.05 64.95 59.55 67.15 60.65C69.45 61.75 71.8 62.75 74.2 63.65C78.7 65.35 82.35 67.1 85.15 68.9C87.95 70.7 90 73.1 91.3 76.1C92.6 79.1 93.25 83.35 93.25 88.85C93.25 95.15 92.2 100.15 90.1 103.85C88.1 107.45 85.2 110.05 81.4 111.65C77.7 113.25 73.3 114.05 68.2 114.05ZM126 69C126 100.48 100.48 126 69 126C37.5198 126 12 100.48 12 69C12 37.5198 37.5198 12 69 12C100.48 12 126 37.5198 126 69ZM128 69C128 101.585 101.585 128 69 128C36.4152 128 10 101.585 10 69C10 36.4152 36.4152 10 69 10C101.585 10 128 36.4152 128 69Z" fill="url(#paint0_linear_15508_35)"/><defs><linearGradient id="paint0_linear_15508_35" x1="36.5" y1="148" x2="95" y2="4" gradientUnits="userSpaceOnUse"><stop stop-color="#D9D9D9"/><stop offset="0.0001" stop-color="#2A32CA"/><stop offset="1" stop-color="#EC0233"/></linearGradient></defs></svg>